<?xml version="1.0" encoding="utf-8" standalone="no"?>
<!DOCTYPE svg PUBLIC "-//W3C//DTD SVG 1.1//EN"
  "http://www.w3.org/Graphics/SVG/1.1/DTD/svg11.dtd">
<svg xmlns:xlink="http://www.w3.org/1999/xlink" width="321.476313pt" height="436.635469pt" viewBox="0 0 321.476313 436.635469" xmlns="http://www.w3.org/2000/svg" version="1.1">
 <metadata>
  <rdf:RDF xmlns:dc="http://purl.org/dc/elements/1.1/" xmlns:cc="http://creativecommons.org/ns#" xmlns:rdf="http://www.w3.org/1999/02/22-rdf-syntax-ns#">
   <cc:Work>
    <dc:type rdf:resource="http://purl.org/dc/dcmitype/StillImage"/>
    <dc:date>2026-06-08T12:29:37.125049</dc:date>
    <dc:format>image/svg+xml</dc:format>
    <dc:creator>
     <cc:Agent>
      <dc:title>Matplotlib v3.10.6, https://matplotlib.org/</dc:title>
     </cc:Agent>
    </dc:creator>
   </cc:Work>
  </rdf:RDF>
 </metadata>
 <defs>
  <style type="text/css">*{stroke-linejoin: round; stroke-linecap: butt}</style>
 </defs>
 <g id="figure_1">
  <g id="patch_1">
   <path d="M 0 436.635469 
L 321.476313 436.635469 
L 321.476313 0 
L 0 0 
z
" style="fill: #ffffff"/>
  </g>
  <g id="axes_1">
   <g id="patch_2">
    <path d="M 42.620313 399.079219 
L 314.276313 399.079219 
L 314.276313 10.999219 
L 42.620313 10.999219 
z
" style="fill: #ffffff"/>
   </g>
   <g id="patch_3">
    <path d="M 100.832313 344.748019 
C 101.861513 344.748019 102.848698 344.339113 103.576452 343.611359 
C 104.304207 342.883604 104.713113 341.896419 104.713113 340.867219 
C 104.713113 339.838019 104.304207 338.850833 103.576452 338.123079 
C 102.848698 337.395324 101.861513 336.986419 100.832313 336.986419 
C 99.803112 336.986419 98.815927 337.395324 98.088173 338.123079 
C 97.360418 338.850833 96.951513 339.838019 96.951513 340.867219 
C 96.951513 341.896419 97.360418 342.883604 98.088173 343.611359 
C 98.815927 344.339113 99.803112 344.748019 100.832313 344.748019 
z
" clip-path="url(#pe7135ed20d)" style="fill: #1f77b4; opacity: 0.1; stroke: #1f77b4; stroke-width: 1.2; stroke-linejoin: miter"/>
   </g>
   <g id="patch_4">
    <path d="M 256.064313 166.231219 
C 266.356314 166.231219 276.228168 162.142163 283.505712 154.864619 
C 290.783257 147.587074 294.872313 137.715221 294.872313 127.423219 
C 294.872313 117.131217 290.783257 107.259363 283.505712 99.981819 
C 276.228168 92.704274 266.356314 88.615219 256.064313 88.615219 
C 245.772311 88.615219 235.900457 92.704274 228.622913 99.981819 
C 221.345368 107.259363 217.256313 117.131217 217.256313 127.423219 
C 217.256313 137.715221 221.345368 147.587074 228.622913 154.864619 
C 235.900457 162.142163 245.772311 166.231219 256.064313 166.231219 
z
" clip-path="url(#pe7135ed20d)" style="fill: #1f77b4; opacity: 0.08; stroke-dasharray: 4.44,1.92; stroke-dashoffset: 0; stroke: #1f77b4; stroke-width: 1.2; stroke-linejoin: miter"/>
   </g>
   <g id="patch_5">
    <path d="M 256.064313 344.748019 
C 257.093513 344.748019 258.080698 344.339113 258.808452 343.611359 
C 259.536207 342.883604 259.945113 341.896419 259.945113 340.867219 
C 259.945113 339.838019 259.536207 338.850833 258.808452 338.123079 
C 258.080698 337.395324 257.093513 336.986419 256.064313 336.986419 
C 255.035112 336.986419 254.047927 337.395324 253.320173 338.123079 
C 252.592418 338.850833 252.183513 339.838019 252.183513 340.867219 
C 252.183513 341.896419 252.592418 342.883604 253.320173 343.611359 
C 254.047927 344.339113 255.035112 344.748019 256.064313 344.748019 
z
" clip-path="url(#pe7135ed20d)" style="fill: #ff7f0e; opacity: 0.1; stroke: #ff7f0e; stroke-width: 1.2; stroke-linejoin: miter"/>
   </g>
   <g id="patch_6">
    <path d="M 100.832313 166.231219 
C 111.124314 166.231219 120.996168 162.142163 128.273712 154.864619 
C 135.551257 147.587074 139.640313 137.715221 139.640313 127.423219 
C 139.640313 117.131217 135.551257 107.259363 128.273712 99.981819 
C 120.996168 92.704274 111.124314 88.615219 100.832313 88.615219 
C 90.540311 88.615219 80.668457 92.704274 73.390913 99.981819 
C 66.113368 107.259363 62.024313 117.131217 62.024313 127.423219 
C 62.024313 137.715221 66.113368 147.587074 73.390913 154.864619 
C 80.668457 162.142163 90.540311 166.231219 100.832313 166.231219 
z
" clip-path="url(#pe7135ed20d)" style="fill: #ff7f0e; opacity: 0.08; stroke-dasharray: 4.44,1.92; stroke-dashoffset: 0; stroke: #ff7f0e; stroke-width: 1.2; stroke-linejoin: miter"/>
   </g>
   <g id="patch_7">
    <path d="M 100.832313 302.059219 
C 116.270315 302.059219 131.078096 295.925635 141.994412 285.009319 
C 152.910729 274.093002 159.044313 259.285222 159.044313 243.847219 
C 159.044313 228.409216 152.910729 213.601435 141.994412 202.685119 
C 131.078096 191.768802 116.270315 185.635219 100.832313 185.635219 
C 85.39431 185.635219 70.586529 191.768802 59.670213 202.685119 
C 48.753896 213.601435 42.620313 228.409216 42.620313 243.847219 
C 42.620313 259.285222 48.753896 274.093002 59.670213 285.009319 
C 70.586529 295.925635 85.39431 302.059219 100.832313 302.059219 
z
" clip-path="url(#pe7135ed20d)" style="fill: #595959; opacity: 0.25; stroke: #000000; stroke-linejoin: miter"/>
   </g>
   <g id="patch_8">
    <path d="M 256.064313 302.059219 
C 271.502315 302.059219 286.310096 295.925635 297.226412 285.009319 
C 308.142729 274.093002 314.276313 259.285222 314.276313 243.847219 
C 314.276313 228.409216 308.142729 213.601435 297.226412 202.685119 
C 286.310096 191.768802 271.502315 185.635219 256.064313 185.635219 
C 240.62631 185.635219 225.818529 191.768802 214.902213 202.685119 
C 203.985896 213.601435 197.852313 228.409216 197.852313 243.847219 
C 197.852313 259.285222 203.985896 274.093002 214.902213 285.009319 
C 225.818529 295.925635 240.62631 302.059219 256.064313 302.059219 
z
" clip-path="url(#pe7135ed20d)" style="fill: #595959; opacity: 0.25; stroke: #000000; stroke-linejoin: miter"/>
   </g>
   <g id="patch_9">
    <path d="M 106.392252 338.013326 
L 106.43832 344.222433 
L 94.796246 344.308815 
L 94.750168 338.099708 
z
" clip-path="url(#pe7135ed20d)" style="fill: #1f77b4; opacity: 0.3; stroke: #000000; stroke-linejoin: miter"/>
   </g>
   <g id="patch_10">
    <path d="M 150.718592 313.944829 
L 154.384998 318.956084 
L 144.988901 325.830588 
L 141.322495 320.819334 
z
" clip-path="url(#pe7135ed20d)" style="fill: #1f77b4; opacity: 0.5; stroke: #000000; stroke-linejoin: miter"/>
   </g>
   <g id="patch_11">
    <path d="M 170.52337 240.799992 
L 176.68518 241.56631 
L 175.248335 253.119707 
L 169.086524 252.353389 
z
" clip-path="url(#pe7135ed20d)" style="fill: #1f77b4; opacity: 0.65; stroke: #000000; stroke-linejoin: miter"/>
   </g>
   <g id="patch_12">
    <path d="M 211.150151 84.072495 
L 216.170972 87.725771 
L 209.321061 97.139823 
L 204.30024 93.486528 
z
" clip-path="url(#pe7135ed20d)" style="fill: #1f77b4; opacity: 0.8; stroke: #000000; stroke-linejoin: miter"/>
   </g>
   <g id="patch_13">
    <path d="M 260.039873 132.522298 
L 254.367155 129.997333 
L 259.10148 119.360992 
L 264.774199 121.885957 
z
" clip-path="url(#pe7135ed20d)" style="fill: #1f77b4; opacity: 0.9; stroke: #000000; stroke-linejoin: miter"/>
   </g>
   <g id="patch_14">
    <path d="M 250.129242 341.389442 
L 249.600172 335.202744 
L 261.200235 334.210741 
L 261.729296 340.397439 
z
" clip-path="url(#pe7135ed20d)" style="fill: #ff7f0e; opacity: 0.3; stroke: #000000; stroke-linejoin: miter"/>
   </g>
   <g id="patch_15">
    <path d="M 231.848543 369.425366 
L 227.219669 365.286683 
L 234.979698 356.607552 
L 239.608572 360.746235 
z
" clip-path="url(#pe7135ed20d)" style="fill: #ff7f0e; opacity: 0.5; stroke: #000000; stroke-linejoin: miter"/>
   </g>
   <g id="patch_16">
    <path d="M 195.016138 367.389195 
L 196.304958 361.315138 
L 207.693804 363.731681 
L 206.404984 369.805738 
z
" clip-path="url(#pe7135ed20d)" style="fill: #ff7f0e; opacity: 0.65; stroke: #000000; stroke-linejoin: miter"/>
   </g>
   <g id="patch_17">
    <path d="M 173.525724 230.534301 
L 179.734515 230.456422 
L 179.880538 242.097907 
L 173.671747 242.175785 
z
" clip-path="url(#pe7135ed20d)" style="fill: #ff7f0e; opacity: 0.8; stroke: #000000; stroke-linejoin: miter"/>
   </g>
   <g id="patch_18">
    <path d="M 75.873776 112.287984 
L 72.839292 106.870691 
L 82.996703 101.181021 
L 86.031187 106.598314 
z
" clip-path="url(#pe7135ed20d)" style="fill: #ff7f0e; opacity: 0.9; stroke: #000000; stroke-linejoin: miter"/>
   </g>
   <g id="matplotlib.axis_1">
    <g id="xtick_1">
     <g id="line2d_1">
      <path d="M 62.024313 399.079219 
L 62.024313 10.999219 
" clip-path="url(#pe7135ed20d)" style="fill: none; stroke: #b0b0b0; stroke-opacity: 0.25; stroke-width: 0.8; stroke-linecap: square"/>
     </g>
     <g id="line2d_2">
      <defs>
       <path id="mebe5cb7c77" d="M 0 0 
L 0 3.5 
" style="stroke: #000000; stroke-width: 0.8"/>
      </defs>
      <g>
       <use xlink:href="#mebe5cb7c77" x="62.024313" y="399.079219" style="stroke: #000000; stroke-width: 0.8"/>
      </g>
     </g>
     <g id="text_1">
      <!-- −3 -->
      <g transform="translate(54.653219 413.677656) scale(0.1 -0.1)">
       <defs>
        <path id="DejaVuSans-2212" d="M 678 2272 
L 4684 2272 
L 4684 1741 
L 678 1741 
L 678 2272 
z
" transform="scale(0.015625)"/>
        <path id="DejaVuSans-33" d="M 2597 2516 
Q 3050 2419 3304 2112 
Q 3559 1806 3559 1356 
Q 3559 666 3084 287 
Q 2609 -91 1734 -91 
Q 1441 -91 1130 -33 
Q 819 25 488 141 
L 488 750 
Q 750 597 1062 519 
Q 1375 441 1716 441 
Q 2309 441 2620 675 
Q 2931 909 2931 1356 
Q 2931 1769 2642 2001 
Q 2353 2234 1838 2234 
L 1294 2234 
L 1294 2753 
L 1863 2753 
Q 2328 2753 2575 2939 
Q 2822 3125 2822 3475 
Q 2822 3834 2567 4026 
Q 2313 4219 1838 4219 
Q 1578 4219 1281 4162 
Q 984 4106 628 3988 
L 628 4550 
Q 988 4650 1302 4700 
Q 1616 4750 1894 4750 
Q 2613 4750 3031 4423 
Q 3450 4097 3450 3541 
Q 3450 3153 3228 2886 
Q 3006 2619 2597 2516 
z
" transform="scale(0.015625)"/>
       </defs>
       <use xlink:href="#DejaVuSans-2212"/>
       <use xlink:href="#DejaVuSans-33" transform="translate(83.789062 0)"/>
      </g>
     </g>
    </g>
    <g id="xtick_2">
     <g id="line2d_3">
      <path d="M 100.832313 399.079219 
L 100.832313 10.999219 
" clip-path="url(#pe7135ed20d)" style="fill: none; stroke: #b0b0b0; stroke-opacity: 0.25; stroke-width: 0.8; stroke-linecap: square"/>
     </g>
     <g id="line2d_4">
      <g>
       <use xlink:href="#mebe5cb7c77" x="100.832313" y="399.079219" style="stroke: #000000; stroke-width: 0.8"/>
      </g>
     </g>
     <g id="text_2">
      <!-- −2 -->
      <g transform="translate(93.461219 413.677656) scale(0.1 -0.1)">
       <defs>
        <path id="DejaVuSans-32" d="M 1228 531 
L 3431 531 
L 3431 0 
L 469 0 
L 469 531 
Q 828 903 1448 1529 
Q 2069 2156 2228 2338 
Q 2531 2678 2651 2914 
Q 2772 3150 2772 3378 
Q 2772 3750 2511 3984 
Q 2250 4219 1831 4219 
Q 1534 4219 1204 4116 
Q 875 4013 500 3803 
L 500 4441 
Q 881 4594 1212 4672 
Q 1544 4750 1819 4750 
Q 2544 4750 2975 4387 
Q 3406 4025 3406 3419 
Q 3406 3131 3298 2873 
Q 3191 2616 2906 2266 
Q 2828 2175 2409 1742 
Q 1991 1309 1228 531 
z
" transform="scale(0.015625)"/>
       </defs>
       <use xlink:href="#DejaVuSans-2212"/>
       <use xlink:href="#DejaVuSans-32" transform="translate(83.789062 0)"/>
      </g>
     </g>
    </g>
    <g id="xtick_3">
     <g id="line2d_5">
      <path d="M 139.640313 399.079219 
L 139.640313 10.999219 
" clip-path="url(#pe7135ed20d)" style="fill: none; stroke: #b0b0b0; stroke-opacity: 0.25; stroke-width: 0.8; stroke-linecap: square"/>
     </g>
     <g id="line2d_6">
      <g>
       <use xlink:href="#mebe5cb7c77" x="139.640313" y="399.079219" style="stroke: #000000; stroke-width: 0.8"/>
      </g>
     </g>
     <g id="text_3">
      <!-- −1 -->
      <g transform="translate(132.269219 413.677656) scale(0.1 -0.1)">
       <defs>
        <path id="DejaVuSans-31" d="M 794 531 
L 1825 531 
L 1825 4091 
L 703 3866 
L 703 4441 
L 1819 4666 
L 2450 4666 
L 2450 531 
L 3481 531 
L 3481 0 
L 794 0 
L 794 531 
z
" transform="scale(0.015625)"/>
       </defs>
       <use xlink:href="#DejaVuSans-2212"/>
       <use xlink:href="#DejaVuSans-31" transform="translate(83.789062 0)"/>
      </g>
     </g>
    </g>
    <g id="xtick_4">
     <g id="line2d_7">
      <path d="M 178.448313 399.079219 
L 178.448313 10.999219 
" clip-path="url(#pe7135ed20d)" style="fill: none; stroke: #b0b0b0; stroke-opacity: 0.25; stroke-width: 0.8; stroke-linecap: square"/>
     </g>
     <g id="line2d_8">
      <g>
       <use xlink:href="#mebe5cb7c77" x="178.448313" y="399.079219" style="stroke: #000000; stroke-width: 0.8"/>
      </g>
     </g>
     <g id="text_4">
      <!-- 0 -->
      <g transform="translate(175.267063 413.677656) scale(0.1 -0.1)">
       <defs>
        <path id="DejaVuSans-30" d="M 2034 4250 
Q 1547 4250 1301 3770 
Q 1056 3291 1056 2328 
Q 1056 1369 1301 889 
Q 1547 409 2034 409 
Q 2525 409 2770 889 
Q 3016 1369 3016 2328 
Q 3016 3291 2770 3770 
Q 2525 4250 2034 4250 
z
M 2034 4750 
Q 2819 4750 3233 4129 
Q 3647 3509 3647 2328 
Q 3647 1150 3233 529 
Q 2819 -91 2034 -91 
Q 1250 -91 836 529 
Q 422 1150 422 2328 
Q 422 3509 836 4129 
Q 1250 4750 2034 4750 
z
" transform="scale(0.015625)"/>
       </defs>
       <use xlink:href="#DejaVuSans-30"/>
      </g>
     </g>
    </g>
    <g id="xtick_5">
     <g id="line2d_9">
      <path d="M 217.256313 399.079219 
L 217.256313 10.999219 
" clip-path="url(#pe7135ed20d)" style="fill: none; stroke: #b0b0b0; stroke-opacity: 0.25; stroke-width: 0.8; stroke-linecap: square"/>
     </g>
     <g id="line2d_10">
      <g>
       <use xlink:href="#mebe5cb7c77" x="217.256313" y="399.079219" style="stroke: #000000; stroke-width: 0.8"/>
      </g>
     </g>
     <g id="text_5">
      <!-- 1 -->
      <g transform="translate(214.075063 413.677656) scale(0.1 -0.1)">
       <use xlink:href="#DejaVuSans-31"/>
      </g>
     </g>
    </g>
    <g id="xtick_6">
     <g id="line2d_11">
      <path d="M 256.064313 399.079219 
L 256.064313 10.999219 
" clip-path="url(#pe7135ed20d)" style="fill: none; stroke: #b0b0b0; stroke-opacity: 0.25; stroke-width: 0.8; stroke-linecap: square"/>
     </g>
     <g id="line2d_12">
      <g>
       <use xlink:href="#mebe5cb7c77" x="256.064313" y="399.079219" style="stroke: #000000; stroke-width: 0.8"/>
      </g>
     </g>
     <g id="text_6">
      <!-- 2 -->
      <g transform="translate(252.883063 413.677656) scale(0.1 -0.1)">
       <use xlink:href="#DejaVuSans-32"/>
      </g>
     </g>
    </g>
    <g id="xtick_7">
     <g id="line2d_13">
      <path d="M 294.872313 399.079219 
L 294.872313 10.999219 
" clip-path="url(#pe7135ed20d)" style="fill: none; stroke: #b0b0b0; stroke-opacity: 0.25; stroke-width: 0.8; stroke-linecap: square"/>
     </g>
     <g id="line2d_14">
      <g>
       <use xlink:href="#mebe5cb7c77" x="294.872313" y="399.079219" style="stroke: #000000; stroke-width: 0.8"/>
      </g>
     </g>
     <g id="text_7">
      <!-- 3 -->
      <g transform="translate(291.691063 413.677656) scale(0.1 -0.1)">
       <use xlink:href="#DejaVuSans-33"/>
      </g>
     </g>
    </g>
    <g id="text_8">
     <!-- x [m] -->
     <g transform="translate(165.128 427.355781) scale(0.1 -0.1)">
      <defs>
       <path id="DejaVuSans-78" d="M 3513 3500 
L 2247 1797 
L 3578 0 
L 2900 0 
L 1881 1375 
L 863 0 
L 184 0 
L 1544 1831 
L 300 3500 
L 978 3500 
L 1906 2253 
L 2834 3500 
L 3513 3500 
z
" transform="scale(0.015625)"/>
       <path id="DejaVuSans-20" transform="scale(0.015625)"/>
       <path id="DejaVuSans-5b" d="M 550 4863 
L 1875 4863 
L 1875 4416 
L 1125 4416 
L 1125 -397 
L 1875 -397 
L 1875 -844 
L 550 -844 
L 550 4863 
z
" transform="scale(0.015625)"/>
       <path id="DejaVuSans-6d" d="M 3328 2828 
Q 3544 3216 3844 3400 
Q 4144 3584 4550 3584 
Q 5097 3584 5394 3201 
Q 5691 2819 5691 2113 
L 5691 0 
L 5113 0 
L 5113 2094 
Q 5113 2597 4934 2840 
Q 4756 3084 4391 3084 
Q 3944 3084 3684 2787 
Q 3425 2491 3425 1978 
L 3425 0 
L 2847 0 
L 2847 2094 
Q 2847 2600 2669 2842 
Q 2491 3084 2119 3084 
Q 1678 3084 1418 2786 
Q 1159 2488 1159 1978 
L 1159 0 
L 581 0 
L 581 3500 
L 1159 3500 
L 1159 2956 
Q 1356 3278 1631 3431 
Q 1906 3584 2284 3584 
Q 2666 3584 2933 3390 
Q 3200 3197 3328 2828 
z
" transform="scale(0.015625)"/>
       <path id="DejaVuSans-5d" d="M 1947 4863 
L 1947 -844 
L 622 -844 
L 622 -397 
L 1369 -397 
L 1369 4416 
L 622 4416 
L 622 4863 
L 1947 4863 
z
" transform="scale(0.015625)"/>
      </defs>
      <use xlink:href="#DejaVuSans-78"/>
      <use xlink:href="#DejaVuSans-20" transform="translate(59.179688 0)"/>
      <use xlink:href="#DejaVuSans-5b" transform="translate(90.966797 0)"/>
      <use xlink:href="#DejaVuSans-6d" transform="translate(129.980469 0)"/>
      <use xlink:href="#DejaVuSans-5d" transform="translate(227.392578 0)"/>
     </g>
    </g>
   </g>
   <g id="matplotlib.axis_2">
    <g id="ytick_1">
     <g id="line2d_15">
      <path d="M 42.620313 399.079219 
L 314.276313 399.079219 
" clip-path="url(#pe7135ed20d)" style="fill: none; stroke: #b0b0b0; stroke-opacity: 0.25; stroke-width: 0.8; stroke-linecap: square"/>
     </g>
     <g id="line2d_16">
      <defs>
       <path id="m60ded9341a" d="M 0 0 
L -3.5 0 
" style="stroke: #000000; stroke-width: 0.8"/>
      </defs>
      <g>
       <use xlink:href="#m60ded9341a" x="42.620313" y="399.079219" style="stroke: #000000; stroke-width: 0.8"/>
      </g>
     </g>
     <g id="text_9">
      <!-- −4 -->
      <g transform="translate(20.878125 402.878437) scale(0.1 -0.1)">
       <defs>
        <path id="DejaVuSans-34" d="M 2419 4116 
L 825 1625 
L 2419 1625 
L 2419 4116 
z
M 2253 4666 
L 3047 4666 
L 3047 1625 
L 3713 1625 
L 3713 1100 
L 3047 1100 
L 3047 0 
L 2419 0 
L 2419 1100 
L 313 1100 
L 313 1709 
L 2253 4666 
z
" transform="scale(0.015625)"/>
       </defs>
       <use xlink:href="#DejaVuSans-2212"/>
       <use xlink:href="#DejaVuSans-34" transform="translate(83.789062 0)"/>
      </g>
     </g>
    </g>
    <g id="ytick_2">
     <g id="line2d_17">
      <path d="M 42.620313 321.463219 
L 314.276313 321.463219 
" clip-path="url(#pe7135ed20d)" style="fill: none; stroke: #b0b0b0; stroke-opacity: 0.25; stroke-width: 0.8; stroke-linecap: square"/>
     </g>
     <g id="line2d_18">
      <g>
       <use xlink:href="#m60ded9341a" x="42.620313" y="321.463219" style="stroke: #000000; stroke-width: 0.8"/>
      </g>
     </g>
     <g id="text_10">
      <!-- −2 -->
      <g transform="translate(20.878125 325.262437) scale(0.1 -0.1)">
       <use xlink:href="#DejaVuSans-2212"/>
       <use xlink:href="#DejaVuSans-32" transform="translate(83.789062 0)"/>
      </g>
     </g>
    </g>
    <g id="ytick_3">
     <g id="line2d_19">
      <path d="M 42.620313 243.847219 
L 314.276313 243.847219 
" clip-path="url(#pe7135ed20d)" style="fill: none; stroke: #b0b0b0; stroke-opacity: 0.25; stroke-width: 0.8; stroke-linecap: square"/>
     </g>
     <g id="line2d_20">
      <g>
       <use xlink:href="#m60ded9341a" x="42.620313" y="243.847219" style="stroke: #000000; stroke-width: 0.8"/>
      </g>
     </g>
     <g id="text_11">
      <!-- 0 -->
      <g transform="translate(29.257813 247.646437) scale(0.1 -0.1)">
       <use xlink:href="#DejaVuSans-30"/>
      </g>
     </g>
    </g>
    <g id="ytick_4">
     <g id="line2d_21">
      <path d="M 42.620313 166.231219 
L 314.276313 166.231219 
" clip-path="url(#pe7135ed20d)" style="fill: none; stroke: #b0b0b0; stroke-opacity: 0.25; stroke-width: 0.8; stroke-linecap: square"/>
     </g>
     <g id="line2d_22">
      <g>
       <use xlink:href="#m60ded9341a" x="42.620313" y="166.231219" style="stroke: #000000; stroke-width: 0.8"/>
      </g>
     </g>
     <g id="text_12">
      <!-- 2 -->
      <g transform="translate(29.257813 170.030437) scale(0.1 -0.1)">
       <use xlink:href="#DejaVuSans-32"/>
      </g>
     </g>
    </g>
    <g id="ytick_5">
     <g id="line2d_23">
      <path d="M 42.620313 88.615219 
L 314.276313 88.615219 
" clip-path="url(#pe7135ed20d)" style="fill: none; stroke: #b0b0b0; stroke-opacity: 0.25; stroke-width: 0.8; stroke-linecap: square"/>
     </g>
     <g id="line2d_24">
      <g>
       <use xlink:href="#m60ded9341a" x="42.620313" y="88.615219" style="stroke: #000000; stroke-width: 0.8"/>
      </g>
     </g>
     <g id="text_13">
      <!-- 4 -->
      <g transform="translate(29.257813 92.414437) scale(0.1 -0.1)">
       <use xlink:href="#DejaVuSans-34"/>
      </g>
     </g>
    </g>
    <g id="ytick_6">
     <g id="line2d_25">
      <path d="M 42.620313 10.999219 
L 314.276313 10.999219 
" clip-path="url(#pe7135ed20d)" style="fill: none; stroke: #b0b0b0; stroke-opacity: 0.25; stroke-width: 0.8; stroke-linecap: square"/>
     </g>
     <g id="line2d_26">
      <g>
       <use xlink:href="#m60ded9341a" x="42.620313" y="10.999219" style="stroke: #000000; stroke-width: 0.8"/>
      </g>
     </g>
     <g id="text_14">
      <!-- 6 -->
      <g transform="translate(29.257813 14.798437) scale(0.1 -0.1)">
       <defs>
        <path id="DejaVuSans-36" d="M 2113 2584 
Q 1688 2584 1439 2293 
Q 1191 2003 1191 1497 
Q 1191 994 1439 701 
Q 1688 409 2113 409 
Q 2538 409 2786 701 
Q 3034 994 3034 1497 
Q 3034 2003 2786 2293 
Q 2538 2584 2113 2584 
z
M 3366 4563 
L 3366 3988 
Q 3128 4100 2886 4159 
Q 2644 4219 2406 4219 
Q 1781 4219 1451 3797 
Q 1122 3375 1075 2522 
Q 1259 2794 1537 2939 
Q 1816 3084 2150 3084 
Q 2853 3084 3261 2657 
Q 3669 2231 3669 1497 
Q 3669 778 3244 343 
Q 2819 -91 2113 -91 
Q 1303 -91 875 529 
Q 447 1150 447 2328 
Q 447 3434 972 4092 
Q 1497 4750 2381 4750 
Q 2619 4750 2861 4703 
Q 3103 4656 3366 4563 
z
" transform="scale(0.015625)"/>
       </defs>
       <use xlink:href="#DejaVuSans-36"/>
      </g>
     </g>
    </g>
    <g id="text_15">
     <!-- y [m] -->
     <g transform="translate(14.798438 218.359531) rotate(-90) scale(0.1 -0.1)">
      <defs>
       <path id="DejaVuSans-79" d="M 2059 -325 
Q 1816 -950 1584 -1140 
Q 1353 -1331 966 -1331 
L 506 -1331 
L 506 -850 
L 844 -850 
Q 1081 -850 1212 -737 
Q 1344 -625 1503 -206 
L 1606 56 
L 191 3500 
L 800 3500 
L 1894 763 
L 2988 3500 
L 3597 3500 
L 2059 -325 
z
" transform="scale(0.015625)"/>
      </defs>
      <use xlink:href="#DejaVuSans-79"/>
      <use xlink:href="#DejaVuSans-20" transform="translate(59.179688 0)"/>
      <use xlink:href="#DejaVuSans-5b" transform="translate(90.966797 0)"/>
      <use xlink:href="#DejaVuSans-6d" transform="translate(129.980469 0)"/>
      <use xlink:href="#DejaVuSans-5d" transform="translate(227.392578 0)"/>
     </g>
    </g>
   </g>
   <g id="line2d_27">
    <path d="M 100.594244 341.16107 
L 102.218853 341.106092 
L 104.995284 340.9416 
L 109.042982 340.418359 
L 112.338504 339.7879 
L 116.003887 338.892364 
L 119.942558 337.695677 
L 124.051467 336.170838 
L 128.237148 334.302018 
L 132.416385 332.083025 
L 136.520039 329.517904 
L 140.489509 326.619136 
L 144.278971 323.402793 
L 147.853746 319.887709 
L 151.188205 316.096523 
L 154.265457 312.053905 
L 157.076062 307.784788 
L 159.615758 303.314401 
L 161.885667 298.669585 
L 163.893847 293.875604 
L 165.653867 288.954039 
L 167.181258 283.925149 
L 168.49282 278.807854 
L 169.606645 273.618216 
L 170.541512 268.369516 
L 171.316764 263.072379 
L 172.224988 255.052323 
L 172.885852 246.959849 
L 173.484789 236.083439 
L 173.960215 222.383368 
L 174.731672 197.503226 
L 175.306505 186.394571 
L 175.937152 178.062545 
L 176.803171 169.749024 
L 177.963747 161.477408 
L 178.929208 156.000325 
L 180.066099 150.564351 
L 181.387774 145.180154 
L 182.902704 139.864445 
L 184.616006 134.627928 
L 186.531094 129.47622 
L 188.648132 124.413504 
L 190.963765 119.445977 
L 193.47313 114.581746 
L 196.170166 109.82936 
L 199.047619 105.199866 
L 202.09749 100.708956 
L 205.293001 96.420086 
L 208.57126 92.464899 
L 211.90979 88.827047 
L 215.265886 85.512432 
L 218.598876 82.526135 
L 221.873732 79.871487 
L 225.045228 77.557739 
L 228.061665 75.590499 
L 230.893338 73.962421 
L 233.525739 72.652889 
L 235.946321 71.63485 
L 238.251358 70.84496 
L 240.478649 70.257423 
L 242.669579 69.855159 
L 244.708924 69.641647 
L 246.680188 69.59433 
L 248.572862 69.704713 
L 251.250943 70.140471 
L 253.727688 70.858968 
L 256.00344 71.811185 
L 258.012325 72.899044 
L 259.805978 74.100746 
L 261.433427 75.413276 
L 263.353544 77.300018 
L 264.915004 79.180173 
L 266.201691 81.085551 
L 267.266909 83.034563 
L 268.317767 85.500533 
L 269.088338 87.918668 
L 269.674043 90.493625 
L 270.065935 93.322684 
L 270.249848 96.459585 
L 270.205704 99.641638 
L 269.919393 103.129885 
L 269.434152 106.324402 
L 268.729376 109.522934 
L 267.77926 112.766599 
L 266.662968 115.740109 
L 265.501828 118.255831 
L 264.118119 120.708265 
L 262.75198 122.676523 
L 261.405429 124.238834 
L 260.136859 125.376981 
L 259.570677 125.941645 
L 259.570677 125.941645 
" clip-path="url(#pe7135ed20d)" style="fill: none; stroke-dasharray: 6.66,2.88; stroke-dashoffset: 0; stroke: #1f77b4; stroke-opacity: 0.45; stroke-width: 1.8"/>
   </g>
   <g id="line2d_28">
    <path d="M 100.594244 341.16107 
" clip-path="url(#pe7135ed20d)" style="fill: none; stroke: #1f77b4; stroke-width: 1.5; stroke-linecap: square"/>
    <defs>
     <path id="m91bf4fa212" d="M 0 3 
C 0.795609 3 1.55874 2.683901 2.12132 2.12132 
C 2.683901 1.55874 3 0.795609 3 0 
C 3 -0.795609 2.683901 -1.55874 2.12132 -2.12132 
C 1.55874 -2.683901 0.795609 -3 0 -3 
C -0.795609 -3 -1.55874 -2.683901 -2.12132 -2.12132 
C -2.683901 -1.55874 -3 -0.795609 -3 0 
C -3 0.795609 -2.683901 1.55874 -2.12132 2.12132 
C -1.55874 2.683901 -0.795609 3 0 3 
z
" style="stroke: #1f77b4"/>
    </defs>
    <g clip-path="url(#pe7135ed20d)">
     <use xlink:href="#m91bf4fa212" x="100.594244" y="341.16107" style="fill-opacity: 0; stroke: #1f77b4"/>
    </g>
   </g>
   <g id="line2d_29">
    <path d="M 255.990306 126.04878 
" clip-path="url(#pe7135ed20d)" style="fill: none; stroke: #1f77b4; stroke-width: 1.5; stroke-linecap: square"/>
    <defs>
     <path id="m104789e7a3" d="M 0 -6 
L -1.347084 -1.854102 
L -5.706339 -1.854102 
L -2.179628 0.708204 
L -3.526712 4.854102 
L -0 2.291796 
L 3.526712 4.854102 
L 2.179628 0.708204 
L 5.706339 -1.854102 
L 1.347084 -1.854102 
z
" style="stroke: #1f77b4; stroke-linejoin: bevel"/>
    </defs>
    <g clip-path="url(#pe7135ed20d)">
     <use xlink:href="#m104789e7a3" x="255.990306" y="126.04878" style="fill: #1f77b4; stroke: #1f77b4; stroke-linejoin: bevel"/>
    </g>
   </g>
   <g id="line2d_30">
    <path d="M 255.664737 337.800092 
L 254.476793 337.798232 
L 253.303047 338.111181 
L 251.989911 338.81529 
L 250.587863 339.931111 
L 249.187439 341.414128 
L 247.798012 343.194022 
L 244.840028 347.477822 
L 239.544707 355.244568 
L 236.585066 359.242881 
L 234.498126 361.793503 
L 232.30258 364.194216 
L 230.009604 366.36726 
L 227.631519 368.246814 
L 225.172867 369.806321 
L 222.659084 371.017748 
L 220.136261 371.857278 
L 217.66825 372.30957 
L 215.314138 372.385969 
L 213.10363 372.131764 
L 211.03863 371.604693 
L 209.101473 370.859382 
L 207.26777 369.936338 
L 205.517186 368.860998 
L 202.997962 366.987532 
L 200.537811 364.789423 
L 198.087348 362.224487 
L 195.624292 359.232185 
L 193.146132 355.730864 
L 191.506153 353.079352 
L 189.892195 350.152391 
L 188.318304 346.934475 
L 186.805202 343.425891 
L 185.371429 339.630921 
L 184.034479 335.554868 
L 182.814623 331.221308 
L 181.723798 326.660523 
L 180.766786 321.903048 
L 179.946171 316.984791 
L 178.959189 309.37885 
L 178.228321 301.570434 
L 177.70756 293.622121 
L 177.264148 282.884363 
L 176.976454 269.317377 
L 176.769966 244.612529 
L 176.516929 222.449413 
L 176.170892 208.554896 
L 175.585124 194.641335 
L 174.881165 183.504038 
L 174.179034 175.181431 
L 173.296478 166.929226 
L 172.19805 158.790384 
L 170.855421 150.819897 
L 169.248054 143.061117 
L 168.01826 138.03121 
L 166.650736 133.124482 
L 165.182445 128.366007 
L 163.605752 123.79213 
L 161.914431 119.44581 
L 160.114136 115.378214 
L 158.223348 111.635309 
L 156.27137 108.253169 
L 154.296689 105.261534 
L 152.350783 102.683348 
L 150.495624 100.527449 
L 147.989037 98.044518 
L 145.712193 96.187467 
L 143.377701 94.624453 
L 141.043501 93.363451 
L 138.779881 92.38752 
L 136.478448 91.608067 
L 134.146663 91.006309 
L 130.999645 90.446955 
L 128.018908 90.144656 
L 124.305842 90.019931 
L 120.592698 90.150096 
L 116.420983 90.566905 
L 112.437118 91.219552 
L 108.678603 92.05118 
L 104.752321 93.141297 
L 100.696041 94.503198 
L 96.80701 96.040213 
L 93.084247 97.737944 
L 89.270347 99.731721 
L 85.911857 101.741235 
L 83.049285 103.703442 
L 80.635397 105.623567 
L 79.43524 106.734502 
L 79.43524 106.734502 
" clip-path="url(#pe7135ed20d)" style="fill: none; stroke-dasharray: 6.66,2.88; stroke-dashoffset: 0; stroke: #ff7f0e; stroke-opacity: 0.45; stroke-width: 1.8"/>
   </g>
   <g id="line2d_31">
    <path d="M 255.664737 337.800092 
" clip-path="url(#pe7135ed20d)" style="fill: none; stroke: #ff7f0e; stroke-width: 1.5; stroke-linecap: square"/>
    <defs>
     <path id="mb3ae58a04b" d="M 0 3 
C 0.795609 3 1.55874 2.683901 2.12132 2.12132 
C 2.683901 1.55874 3 0.795609 3 0 
C 3 -0.795609 2.683901 -1.55874 2.12132 -2.12132 
C 1.55874 -2.683901 0.795609 -3 0 -3 
C -0.795609 -3 -1.55874 -2.683901 -2.12132 -2.12132 
C -2.683901 -1.55874 -3 -0.795609 -3 0 
C -3 0.795609 -2.683901 1.55874 -2.12132 2.12132 
C -1.55874 2.683901 -0.795609 3 0 3 
z
" style="stroke: #ff7f0e"/>
    </defs>
    <g clip-path="url(#pe7135ed20d)">
     <use xlink:href="#mb3ae58a04b" x="255.664737" y="337.800092" style="fill-opacity: 0; stroke: #ff7f0e"/>
    </g>
   </g>
   <g id="line2d_32">
    <path d="M 77.287612 111.773024 
" clip-path="url(#pe7135ed20d)" style="fill: none; stroke: #ff7f0e; stroke-width: 1.5; stroke-linecap: square"/>
    <defs>
     <path id="m35a5571a1e" d="M 0 -6 
L -1.347084 -1.854102 
L -5.706339 -1.854102 
L -2.179628 0.708204 
L -3.526712 4.854102 
L -0 2.291796 
L 3.526712 4.854102 
L 2.179628 0.708204 
L 5.706339 -1.854102 
L 1.347084 -1.854102 
z
" style="stroke: #ff7f0e; stroke-linejoin: bevel"/>
    </defs>
    <g clip-path="url(#pe7135ed20d)">
     <use xlink:href="#m35a5571a1e" x="77.287612" y="111.773024" style="fill: #ff7f0e; stroke: #ff7f0e; stroke-linejoin: bevel"/>
    </g>
   </g>
   <g id="patch_19">
    <path d="M 42.620313 399.079219 
L 42.620313 10.999219 
" style="fill: none; stroke: #000000; stroke-width: 0.8; stroke-linejoin: miter; stroke-linecap: square"/>
   </g>
   <g id="patch_20">
    <path d="M 314.276313 399.079219 
L 314.276313 10.999219 
" style="fill: none; stroke: #000000; stroke-width: 0.8; stroke-linejoin: miter; stroke-linecap: square"/>
   </g>
   <g id="patch_21">
    <path d="M 42.620313 399.079219 
L 314.276313 399.079219 
" style="fill: none; stroke: #000000; stroke-width: 0.8; stroke-linejoin: miter; stroke-linecap: square"/>
   </g>
   <g id="patch_22">
    <path d="M 42.620313 10.999219 
L 314.276313 10.999219 
" style="fill: none; stroke: #000000; stroke-width: 0.8; stroke-linejoin: miter; stroke-linecap: square"/>
   </g>
   <g id="text_16">
    <g id="patch_23">
     <path d="M 100.519382 336.382518 
C 101.927942 336.382518 103.279 335.822891 104.275003 334.826889 
C 105.271005 333.830887 105.830632 332.479828 105.830632 331.071268 
C 105.830632 329.662708 105.271005 328.31165 104.275003 327.315647 
C 103.279 326.319645 101.927942 325.760018 100.519382 325.760018 
C 99.110822 325.760018 97.759763 326.319645 96.763761 327.315647 
C 95.767758 328.31165 95.208132 329.662708 95.208132 331.071268 
C 95.208132 332.479828 95.767758 333.830887 96.763761 334.826889 
C 97.759763 335.822891 99.110822 336.382518 100.519382 336.382518 
z
" style="fill: #ffffff; opacity: 0.4; stroke: #1f77b4; stroke-width: 0.9; stroke-linejoin: miter"/>
    </g>
    <!-- 1 -->
    <g style="fill: #1f77b4" transform="translate(97.736257 333.278768) scale(0.08 -0.08)">
     <defs>
      <path id="DejaVuSans-Bold-31" d="M 750 831 
L 1813 831 
L 1813 3847 
L 722 3622 
L 722 4441 
L 1806 4666 
L 2950 4666 
L 2950 831 
L 4013 831 
L 4013 0 
L 750 0 
L 750 831 
z
" transform="scale(0.015625)"/>
     </defs>
     <use xlink:href="#DejaVuSans-Bold-31"/>
    </g>
   </g>
   <g id="text_17">
    <g id="patch_24">
     <path d="M 141.895839 317.055676 
C 143.304399 317.055676 144.655458 316.496049 145.65146 315.500046 
C 146.647462 314.504044 147.207089 313.152986 147.207089 311.744426 
C 147.207089 310.335866 146.647462 308.984807 145.65146 307.988805 
C 144.655458 306.992802 143.304399 306.433176 141.895839 306.433176 
C 140.487279 306.433176 139.136221 306.992802 138.140218 307.988805 
C 137.144216 308.984807 136.584589 310.335866 136.584589 311.744426 
C 136.584589 313.152986 137.144216 314.504044 138.140218 315.500046 
C 139.136221 316.496049 140.487279 317.055676 141.895839 317.055676 
z
" style="fill: #ffffff; opacity: 0.6; stroke: #1f77b4; stroke-width: 0.9; stroke-linejoin: miter"/>
    </g>
    <!-- 2 -->
    <g style="fill: #1f77b4" transform="translate(139.112714 313.951926) scale(0.08 -0.08)">
     <defs>
      <path id="DejaVuSans-Bold-32" d="M 1844 884 
L 3897 884 
L 3897 0 
L 506 0 
L 506 884 
L 2209 2388 
Q 2438 2594 2547 2791 
Q 2656 2988 2656 3200 
Q 2656 3528 2436 3728 
Q 2216 3928 1850 3928 
Q 1569 3928 1234 3808 
Q 900 3688 519 3450 
L 519 4475 
Q 925 4609 1322 4679 
Q 1719 4750 2100 4750 
Q 2938 4750 3402 4381 
Q 3866 4013 3866 3353 
Q 3866 2972 3669 2642 
Q 3472 2313 2841 1759 
L 1844 884 
z
" transform="scale(0.015625)"/>
     </defs>
     <use xlink:href="#DejaVuSans-Bold-32"/>
    </g>
   </g>
   <g id="text_18">
    <g id="patch_25">
     <path d="M 162.872909 251.025833 
C 164.281469 251.025833 165.632528 250.466207 166.62853 249.470204 
C 167.624532 248.474202 168.184159 247.123143 168.184159 245.714583 
C 168.184159 244.306023 167.624532 242.954965 166.62853 241.958963 
C 165.632528 240.96296 164.281469 240.403333 162.872909 240.403333 
C 161.464349 240.403333 160.113291 240.96296 159.117288 241.958963 
C 158.121286 242.954965 157.561659 244.306023 157.561659 245.714583 
C 157.561659 247.123143 158.121286 248.474202 159.117288 249.470204 
C 160.113291 250.466207 161.464349 251.025833 162.872909 251.025833 
z
" style="fill: #ffffff; opacity: 0.75; stroke: #1f77b4; stroke-width: 0.9; stroke-linejoin: miter"/>
    </g>
    <!-- 3 -->
    <g style="fill: #1f77b4" transform="translate(160.089784 247.922083) scale(0.08 -0.08)">
     <defs>
      <path id="DejaVuSans-Bold-33" d="M 2981 2516 
Q 3453 2394 3698 2092 
Q 3944 1791 3944 1325 
Q 3944 631 3412 270 
Q 2881 -91 1863 -91 
Q 1503 -91 1142 -33 
Q 781 25 428 141 
L 428 1069 
Q 766 900 1098 814 
Q 1431 728 1753 728 
Q 2231 728 2486 893 
Q 2741 1059 2741 1369 
Q 2741 1688 2480 1852 
Q 2219 2016 1709 2016 
L 1228 2016 
L 1228 2791 
L 1734 2791 
Q 2188 2791 2409 2933 
Q 2631 3075 2631 3366 
Q 2631 3634 2415 3781 
Q 2200 3928 1806 3928 
Q 1516 3928 1219 3862 
Q 922 3797 628 3669 
L 628 4550 
Q 984 4650 1334 4700 
Q 1684 4750 2022 4750 
Q 2931 4750 3382 4451 
Q 3834 4153 3834 3553 
Q 3834 3144 3618 2883 
Q 3403 2622 2981 2516 
z
" transform="scale(0.015625)"/>
     </defs>
     <use xlink:href="#DejaVuSans-Bold-33"/>
    </g>
   </g>
   <g id="text_19">
    <g id="patch_26">
     <path d="M 202.07677 89.980814 
C 203.48533 89.980814 204.836388 89.421188 205.832391 88.425185 
C 206.828393 87.429183 207.38802 86.078124 207.38802 84.669564 
C 207.38802 83.261004 206.828393 81.909946 205.832391 80.913943 
C 204.836388 79.917941 203.48533 79.358314 202.07677 79.358314 
C 200.66821 79.358314 199.317151 79.917941 198.321149 80.913943 
C 197.325147 81.909946 196.76552 83.261004 196.76552 84.669564 
C 196.76552 86.078124 197.325147 87.429183 198.321149 88.425185 
C 199.317151 89.421188 200.66821 89.980814 202.07677 89.980814 
z
" style="fill: #ffffff; opacity: 0.9; stroke: #1f77b4; stroke-width: 0.9; stroke-linejoin: miter"/>
    </g>
    <!-- 4 -->
    <g style="fill: #1f77b4" transform="translate(199.293645 86.877064) scale(0.08 -0.08)">
     <defs>
      <path id="DejaVuSans-Bold-34" d="M 2356 3675 
L 1038 1722 
L 2356 1722 
L 2356 3675 
z
M 2156 4666 
L 3494 4666 
L 3494 1722 
L 4159 1722 
L 4159 850 
L 3494 850 
L 3494 0 
L 2356 0 
L 2356 850 
L 288 850 
L 288 1881 
L 2156 4666 
z
" transform="scale(0.015625)"/>
     </defs>
     <use xlink:href="#DejaVuSans-Bold-34"/>
    </g>
   </g>
   <g id="text_20">
    <g id="patch_27">
     <path d="M 268.788838 135.35597 
C 270.197397 135.35597 271.548456 134.796343 272.544458 133.800341 
C 273.540461 132.804338 274.100088 131.45328 274.100088 130.04472 
C 274.100088 128.63616 273.540461 127.285101 272.544458 126.289099 
C 271.548456 125.293097 270.197397 124.73347 268.788838 124.73347 
C 267.380278 124.73347 266.029219 125.293097 265.033217 126.289099 
C 264.037214 127.285101 263.477588 128.63616 263.477588 130.04472 
C 263.477588 131.45328 264.037214 132.804338 265.033217 133.800341 
C 266.029219 134.796343 267.380278 135.35597 268.788838 135.35597 
z
" style="fill: #ffffff; stroke: #1f77b4; stroke-width: 0.9; stroke-linejoin: miter"/>
    </g>
    <!-- 5 -->
    <g style="fill: #1f77b4" transform="translate(266.005713 132.25222) scale(0.08 -0.08)">
     <defs>
      <path id="DejaVuSans-Bold-35" d="M 678 4666 
L 3669 4666 
L 3669 3781 
L 1638 3781 
L 1638 3059 
Q 1775 3097 1914 3117 
Q 2053 3138 2203 3138 
Q 3056 3138 3531 2711 
Q 4006 2284 4006 1522 
Q 4006 766 3489 337 
Q 2972 -91 2053 -91 
Q 1656 -91 1267 -14 
Q 878 63 494 219 
L 494 1166 
Q 875 947 1217 837 
Q 1559 728 1863 728 
Q 2300 728 2551 942 
Q 2803 1156 2803 1522 
Q 2803 1891 2551 2103 
Q 2300 2316 1863 2316 
Q 1603 2316 1309 2248 
Q 1016 2181 678 2041 
L 678 4666 
z
" transform="scale(0.015625)"/>
     </defs>
     <use xlink:href="#DejaVuSans-Bold-35"/>
    </g>
   </g>
   <g id="text_21">
    <g id="patch_28">
     <path d="M 254.805001 333.057956 
C 256.213561 333.057956 257.56462 332.498329 258.560622 331.502327 
C 259.556624 330.506324 260.116251 329.155266 260.116251 327.746706 
C 260.116251 326.338146 259.556624 324.987087 258.560622 323.991085 
C 257.56462 322.995083 256.213561 322.435456 254.805001 322.435456 
C 253.396441 322.435456 252.045382 322.995083 251.04938 323.991085 
C 250.053378 324.987087 249.493751 326.338146 249.493751 327.746706 
C 249.493751 329.155266 250.053378 330.506324 251.04938 331.502327 
C 252.045382 332.498329 253.396441 333.057956 254.805001 333.057956 
z
" style="fill: #ffffff; opacity: 0.4; stroke: #ff7f0e; stroke-width: 0.9; stroke-linejoin: miter"/>
    </g>
    <!-- 1 -->
    <g style="fill: #ff7f0e" transform="translate(252.021876 329.954206) scale(0.08 -0.08)">
     <use xlink:href="#DejaVuSans-Bold-31"/>
    </g>
   </g>
   <g id="text_22">
    <g id="patch_29">
     <path d="M 225.8922 361.602352 
C 227.30076 361.602352 228.651819 361.042725 229.647821 360.046723 
C 230.643824 359.050721 231.20345 357.699662 231.20345 356.291102 
C 231.20345 354.882542 230.643824 353.531484 229.647821 352.535481 
C 228.651819 351.539479 227.30076 350.979852 225.8922 350.979852 
C 224.48364 350.979852 223.132582 351.539479 222.136579 352.535481 
C 221.140577 353.531484 220.58095 354.882542 220.58095 356.291102 
C 220.58095 357.699662 221.140577 359.050721 222.136579 360.046723 
C 223.132582 361.042725 224.48364 361.602352 225.8922 361.602352 
z
" style="fill: #ffffff; opacity: 0.6; stroke: #ff7f0e; stroke-width: 0.9; stroke-linejoin: miter"/>
    </g>
    <!-- 2 -->
    <g style="fill: #ff7f0e" transform="translate(223.109075 358.498602) scale(0.08 -0.08)">
     <use xlink:href="#DejaVuSans-Bold-32"/>
    </g>
   </g>
   <g id="text_23">
    <g id="patch_30">
     <path d="M 203.449303 361.001354 
C 204.857863 361.001354 206.208922 360.441728 207.204924 359.445725 
C 208.200926 358.449723 208.760553 357.098664 208.760553 355.690104 
C 208.760553 354.281544 208.200926 352.930486 207.204924 351.934483 
C 206.208922 350.938481 204.857863 350.378854 203.449303 350.378854 
C 202.040743 350.378854 200.689685 350.938481 199.693682 351.934483 
C 198.69768 352.930486 198.138053 354.281544 198.138053 355.690104 
C 198.138053 357.098664 198.69768 358.449723 199.693682 359.445725 
C 200.689685 360.441728 202.040743 361.001354 203.449303 361.001354 
z
" style="fill: #ffffff; opacity: 0.75; stroke: #ff7f0e; stroke-width: 0.9; stroke-linejoin: miter"/>
    </g>
    <!-- 3 -->
    <g style="fill: #ff7f0e" transform="translate(200.666178 357.897604) scale(0.08 -0.08)">
     <use xlink:href="#DejaVuSans-Bold-33"/>
    </g>
   </g>
   <g id="text_24">
    <g id="patch_31">
     <path d="M 186.792417 241.500801 
C 188.200977 241.500801 189.552036 240.941175 190.548038 239.945172 
C 191.54404 238.94917 192.103667 237.598111 192.103667 236.189551 
C 192.103667 234.780991 191.54404 233.429933 190.548038 232.433931 
C 189.552036 231.437928 188.200977 230.878301 186.792417 230.878301 
C 185.383857 230.878301 184.032799 231.437928 183.036796 232.433931 
C 182.040794 233.429933 181.481167 234.780991 181.481167 236.189551 
C 181.481167 237.598111 182.040794 238.94917 183.036796 239.945172 
C 184.032799 240.941175 185.383857 241.500801 186.792417 241.500801 
z
" style="fill: #ffffff; opacity: 0.9; stroke: #ff7f0e; stroke-width: 0.9; stroke-linejoin: miter"/>
    </g>
    <!-- 4 -->
    <g style="fill: #ff7f0e" transform="translate(184.009292 238.397051) scale(0.08 -0.08)">
     <use xlink:href="#DejaVuSans-Bold-34"/>
    </g>
   </g>
   <g id="text_25">
    <g id="patch_32">
     <path d="M 74.50419 103.242659 
C 75.91275 103.242659 77.263809 102.683032 78.259811 101.687029 
C 79.255813 100.691027 79.81544 99.339969 79.81544 97.931409 
C 79.81544 96.522849 79.255813 95.17179 78.259811 94.175788 
C 77.263809 93.179785 75.91275 92.620159 74.50419 92.620159 
C 73.09563 92.620159 71.744572 93.179785 70.748569 94.175788 
C 69.752567 95.17179 69.19294 96.522849 69.19294 97.931409 
C 69.19294 99.339969 69.752567 100.691027 70.748569 101.687029 
C 71.744572 102.683032 73.09563 103.242659 74.50419 103.242659 
z
" style="fill: #ffffff; stroke: #ff7f0e; stroke-width: 0.9; stroke-linejoin: miter"/>
    </g>
    <!-- 5 -->
    <g style="fill: #ff7f0e" transform="translate(71.721065 100.138909) scale(0.08 -0.08)">
     <use xlink:href="#DejaVuSans-Bold-35"/>
    </g>
   </g>
   <g id="patch_33">
    <path d="M 102.594658 341.146228 
Q 107.192756 341.112112 110.44925 341.087951 
" clip-path="url(#pe7135ed20d)" style="fill: none; opacity: 0.3; stroke: #1f77b4; stroke-width: 1.2; stroke-linecap: round"/>
    <path d="M 105.631576 338.72363 
L 110.44925 341.087951 
L 105.667189 343.523498 
z
" clip-path="url(#pe7135ed20d)" style="fill: #1f77b4; opacity: 0.3; stroke: #1f77b4; stroke-width: 1.2; stroke-linecap: round"/>
   </g>
   <g id="patch_34">
    <path d="M 149.468242 318.706489 
Q 153.179277 315.991367 155.80753 314.068447 
" clip-path="url(#pe7135ed20d)" style="fill: none; opacity: 0.5; stroke: #1f77b4; stroke-width: 1.2; stroke-linecap: round"/>
    <path d="M 150.516518 314.965771 
L 155.80753 314.068447 
L 153.350782 318.839651 
z
" clip-path="url(#pe7135ed20d)" style="fill: #1f77b4; opacity: 0.5; stroke: #1f77b4; stroke-width: 1.2; stroke-linecap: round"/>
   </g>
   <g id="patch_35">
    <path d="M 173.13274 244.974674 
Q 173.700229 240.411602 174.10214 237.179914 
" clip-path="url(#pe7135ed20d)" style="fill: none; opacity: 0.65; stroke: #1f77b4; stroke-width: 1.2; stroke-linecap: round"/>
    <path d="M 171.128097 241.647023 
L 174.10214 237.179914 
L 175.891401 242.239415 
z
" clip-path="url(#pe7135ed20d)" style="fill: #1f77b4; opacity: 0.65; stroke: #1f77b4; stroke-width: 1.2; stroke-linecap: round"/>
   </g>
   <g id="patch_36">
    <path d="M 211.4126 88.988576 
Q 214.118008 85.270452 216.034048 82.63718 
" clip-path="url(#pe7135ed20d)" style="fill: none; opacity: 0.8; stroke: #1f77b4; stroke-width: 1.2; stroke-linecap: round"/>
    <path d="M 211.269285 85.106396 
L 216.034048 82.63718 
L 215.150564 87.93052 
z
" clip-path="url(#pe7135ed20d)" style="fill: #1f77b4; opacity: 0.8; stroke: #1f77b4; stroke-width: 1.2; stroke-linecap: round"/>
   </g>
   <g id="patch_37">
    <path d="M 258.757197 127.769247 
Q 256.887355 131.970122 255.563083 134.945293 
" clip-path="url(#pe7135ed20d)" style="fill: none; opacity: 0.9; stroke: #1f77b4; stroke-width: 1.2; stroke-linecap: round"/>
    <path d="M 259.707584 131.536025 
L 255.563083 134.945293 
L 255.322369 129.584131 
z
" clip-path="url(#pe7135ed20d)" style="fill: #1f77b4; opacity: 0.9; stroke: #1f77b4; stroke-width: 1.2; stroke-linecap: round"/>
   </g>
   <g id="patch_38">
    <path d="M 253.671543 337.970543 
Q 249.09004 338.36234 245.8453 338.63982 
" clip-path="url(#pe7135ed20d)" style="fill: none; opacity: 0.3; stroke: #ff7f0e; stroke-width: 1.2; stroke-linecap: round"/>
    <path d="M 250.832338 340.622103 
L 245.8453 338.63982 
L 250.42335 335.839559 
z
" clip-path="url(#pe7135ed20d)" style="fill: #ff7f0e; opacity: 0.3; stroke: #ff7f0e; stroke-width: 1.2; stroke-linecap: round"/>
   </g>
   <g id="patch_39">
    <path d="M 232.080745 364.507762 
Q 229.015883 367.935632 226.845267 370.363339 
" clip-path="url(#pe7135ed20d)" style="fill: none; opacity: 0.5; stroke: #ff7f0e; stroke-width: 1.2; stroke-linecap: round"/>
    <path d="M 231.833763 368.384727 
L 226.845267 370.363339 
L 228.255474 365.185375 
z
" clip-path="url(#pe7135ed20d)" style="fill: #ff7f0e; opacity: 0.5; stroke: #ff7f0e; stroke-width: 1.2; stroke-linecap: round"/>
   </g>
   <g id="patch_40">
    <path d="M 199.398069 365.145214 
Q 194.899987 364.190791 191.714327 363.514843 
" clip-path="url(#pe7135ed20d)" style="fill: none; opacity: 0.65; stroke: #ff7f0e; stroke-width: 1.2; stroke-linecap: round"/>
    <path d="M 195.911638 366.858879 
L 191.714327 363.514843 
L 196.907942 362.163416 
z
" clip-path="url(#pe7135ed20d)" style="fill: #ff7f0e; opacity: 0.65; stroke: #ff7f0e; stroke-width: 1.2; stroke-linecap: round"/>
   </g>
   <g id="patch_41">
    <path d="M 176.678041 234.315792 
Q 176.620368 229.717929 176.579523 226.461602 
" clip-path="url(#pe7135ed20d)" style="fill: none; opacity: 0.8; stroke: #ff7f0e; stroke-width: 1.2; stroke-linecap: round"/>
    <path d="M 174.239915 231.291326 
L 176.579523 226.461602 
L 179.039537 231.231123 
z
" clip-path="url(#pe7135ed20d)" style="fill: #ff7f0e; opacity: 0.8; stroke: #ff7f0e; stroke-width: 1.2; stroke-linecap: round"/>
   </g>
   <g id="patch_42">
    <path d="M 77.68993 107.712137 
Q 73.678207 109.959302 70.836999 111.550803 
" clip-path="url(#pe7135ed20d)" style="fill: none; opacity: 0.9; stroke: #ff7f0e; stroke-width: 1.2; stroke-linecap: round"/>
    <path d="M 76.197647 111.298911 
L 70.836999 111.550803 
L 73.851874 107.111149 
z
" clip-path="url(#pe7135ed20d)" style="fill: #ff7f0e; opacity: 0.9; stroke: #ff7f0e; stroke-width: 1.2; stroke-linecap: round"/>
   </g>
   <g id="legend_1">
    <g id="patch_43">
     <path d="M 231.901313 59.969219 
L 308.676312 59.969219 
Q 310.276313 59.969219 310.276313 58.369219 
L 310.276313 16.599219 
Q 310.276313 14.999219 308.676312 14.999219 
L 231.901313 14.999219 
Q 230.301313 14.999219 230.301313 16.599219 
L 230.301313 58.369219 
Q 230.301313 59.969219 231.901313 59.969219 
z
" style="fill: #ffffff; opacity: 0.95; stroke: #cccccc; stroke-linejoin: miter"/>
    </g>
    <g id="line2d_33">
     <path d="M 233.101313 21.077969 
L 239.501313 21.077969 
L 245.901313 21.077969 
" style="fill: none; stroke-dasharray: 6.66,2.88; stroke-dashoffset: 0; stroke: #404040; stroke-width: 1.8"/>
    </g>
    <g id="text_26">
     <!-- Trajectory -->
     <g transform="translate(250.301313 23.877969) scale(0.08 -0.08)">
      <defs>
       <path id="DejaVuSans-54" d="M -19 4666 
L 3928 4666 
L 3928 4134 
L 2272 4134 
L 2272 0 
L 1638 0 
L 1638 4134 
L -19 4134 
L -19 4666 
z
" transform="scale(0.015625)"/>
       <path id="DejaVuSans-72" d="M 2631 2963 
Q 2534 3019 2420 3045 
Q 2306 3072 2169 3072 
Q 1681 3072 1420 2755 
Q 1159 2438 1159 1844 
L 1159 0 
L 581 0 
L 581 3500 
L 1159 3500 
L 1159 2956 
Q 1341 3275 1631 3429 
Q 1922 3584 2338 3584 
Q 2397 3584 2469 3576 
Q 2541 3569 2628 3553 
L 2631 2963 
z
" transform="scale(0.015625)"/>
       <path id="DejaVuSans-61" d="M 2194 1759 
Q 1497 1759 1228 1600 
Q 959 1441 959 1056 
Q 959 750 1161 570 
Q 1363 391 1709 391 
Q 2188 391 2477 730 
Q 2766 1069 2766 1631 
L 2766 1759 
L 2194 1759 
z
M 3341 1997 
L 3341 0 
L 2766 0 
L 2766 531 
Q 2569 213 2275 61 
Q 1981 -91 1556 -91 
Q 1019 -91 701 211 
Q 384 513 384 1019 
Q 384 1609 779 1909 
Q 1175 2209 1959 2209 
L 2766 2209 
L 2766 2266 
Q 2766 2663 2505 2880 
Q 2244 3097 1772 3097 
Q 1472 3097 1187 3025 
Q 903 2953 641 2809 
L 641 3341 
Q 956 3463 1253 3523 
Q 1550 3584 1831 3584 
Q 2591 3584 2966 3190 
Q 3341 2797 3341 1997 
z
" transform="scale(0.015625)"/>
       <path id="DejaVuSans-6a" d="M 603 3500 
L 1178 3500 
L 1178 -63 
Q 1178 -731 923 -1031 
Q 669 -1331 103 -1331 
L -116 -1331 
L -116 -844 
L 38 -844 
Q 366 -844 484 -692 
Q 603 -541 603 -63 
L 603 3500 
z
M 603 4863 
L 1178 4863 
L 1178 4134 
L 603 4134 
L 603 4863 
z
" transform="scale(0.015625)"/>
       <path id="DejaVuSans-65" d="M 3597 1894 
L 3597 1613 
L 953 1613 
Q 991 1019 1311 708 
Q 1631 397 2203 397 
Q 2534 397 2845 478 
Q 3156 559 3463 722 
L 3463 178 
Q 3153 47 2828 -22 
Q 2503 -91 2169 -91 
Q 1331 -91 842 396 
Q 353 884 353 1716 
Q 353 2575 817 3079 
Q 1281 3584 2069 3584 
Q 2775 3584 3186 3129 
Q 3597 2675 3597 1894 
z
M 3022 2063 
Q 3016 2534 2758 2815 
Q 2500 3097 2075 3097 
Q 1594 3097 1305 2825 
Q 1016 2553 972 2059 
L 3022 2063 
z
" transform="scale(0.015625)"/>
       <path id="DejaVuSans-63" d="M 3122 3366 
L 3122 2828 
Q 2878 2963 2633 3030 
Q 2388 3097 2138 3097 
Q 1578 3097 1268 2742 
Q 959 2388 959 1747 
Q 959 1106 1268 751 
Q 1578 397 2138 397 
Q 2388 397 2633 464 
Q 2878 531 3122 666 
L 3122 134 
Q 2881 22 2623 -34 
Q 2366 -91 2075 -91 
Q 1284 -91 818 406 
Q 353 903 353 1747 
Q 353 2603 823 3093 
Q 1294 3584 2113 3584 
Q 2378 3584 2631 3529 
Q 2884 3475 3122 3366 
z
" transform="scale(0.015625)"/>
       <path id="DejaVuSans-74" d="M 1172 4494 
L 1172 3500 
L 2356 3500 
L 2356 3053 
L 1172 3053 
L 1172 1153 
Q 1172 725 1289 603 
Q 1406 481 1766 481 
L 2356 481 
L 2356 0 
L 1766 0 
Q 1100 0 847 248 
Q 594 497 594 1153 
L 594 3053 
L 172 3053 
L 172 3500 
L 594 3500 
L 594 4494 
L 1172 4494 
z
" transform="scale(0.015625)"/>
       <path id="DejaVuSans-6f" d="M 1959 3097 
Q 1497 3097 1228 2736 
Q 959 2375 959 1747 
Q 959 1119 1226 758 
Q 1494 397 1959 397 
Q 2419 397 2687 759 
Q 2956 1122 2956 1747 
Q 2956 2369 2687 2733 
Q 2419 3097 1959 3097 
z
M 1959 3584 
Q 2709 3584 3137 3096 
Q 3566 2609 3566 1747 
Q 3566 888 3137 398 
Q 2709 -91 1959 -91 
Q 1206 -91 779 398 
Q 353 888 353 1747 
Q 353 2609 779 3096 
Q 1206 3584 1959 3584 
z
" transform="scale(0.015625)"/>
      </defs>
      <use xlink:href="#DejaVuSans-54"/>
      <use xlink:href="#DejaVuSans-72" transform="translate(46.333984 0)"/>
      <use xlink:href="#DejaVuSans-61" transform="translate(87.447266 0)"/>
      <use xlink:href="#DejaVuSans-6a" transform="translate(148.726562 0)"/>
      <use xlink:href="#DejaVuSans-65" transform="translate(176.509766 0)"/>
      <use xlink:href="#DejaVuSans-63" transform="translate(238.033203 0)"/>
      <use xlink:href="#DejaVuSans-74" transform="translate(293.013672 0)"/>
      <use xlink:href="#DejaVuSans-6f" transform="translate(332.222656 0)"/>
      <use xlink:href="#DejaVuSans-72" transform="translate(393.404297 0)"/>
      <use xlink:href="#DejaVuSans-79" transform="translate(434.517578 0)"/>
     </g>
    </g>
    <g id="line2d_34">
     <defs>
      <path id="m2a73887645" d="M 0 2.625 
C 0.696158 2.625 1.363897 2.348413 1.856155 1.856155 
C 2.348413 1.363897 2.625 0.696158 2.625 0 
C 2.625 -0.696158 2.348413 -1.363897 1.856155 -1.856155 
C 1.363897 -2.348413 0.696158 -2.625 0 -2.625 
C -0.696158 -2.625 -1.363897 -2.348413 -1.856155 -1.856155 
C -2.348413 -1.363897 -2.625 -0.696158 -2.625 0 
C -2.625 0.696158 -2.348413 1.363897 -1.856155 1.856155 
C -1.363897 2.348413 -0.696158 2.625 0 2.625 
z
" style="stroke: #404040"/>
     </defs>
     <g>
      <use xlink:href="#m2a73887645" x="239.501313" y="31.620469" style="fill-opacity: 0; stroke: #404040"/>
     </g>
    </g>
    <g id="text_27">
     <!-- Initial position -->
     <g transform="translate(250.301313 34.420469) scale(0.08 -0.08)">
      <defs>
       <path id="DejaVuSans-49" d="M 628 4666 
L 1259 4666 
L 1259 0 
L 628 0 
L 628 4666 
z
" transform="scale(0.015625)"/>
       <path id="DejaVuSans-6e" d="M 3513 2113 
L 3513 0 
L 2938 0 
L 2938 2094 
Q 2938 2591 2744 2837 
Q 2550 3084 2163 3084 
Q 1697 3084 1428 2787 
Q 1159 2491 1159 1978 
L 1159 0 
L 581 0 
L 581 3500 
L 1159 3500 
L 1159 2956 
Q 1366 3272 1645 3428 
Q 1925 3584 2291 3584 
Q 2894 3584 3203 3211 
Q 3513 2838 3513 2113 
z
" transform="scale(0.015625)"/>
       <path id="DejaVuSans-69" d="M 603 3500 
L 1178 3500 
L 1178 0 
L 603 0 
L 603 3500 
z
M 603 4863 
L 1178 4863 
L 1178 4134 
L 603 4134 
L 603 4863 
z
" transform="scale(0.015625)"/>
       <path id="DejaVuSans-6c" d="M 603 4863 
L 1178 4863 
L 1178 0 
L 603 0 
L 603 4863 
z
" transform="scale(0.015625)"/>
       <path id="DejaVuSans-70" d="M 1159 525 
L 1159 -1331 
L 581 -1331 
L 581 3500 
L 1159 3500 
L 1159 2969 
Q 1341 3281 1617 3432 
Q 1894 3584 2278 3584 
Q 2916 3584 3314 3078 
Q 3713 2572 3713 1747 
Q 3713 922 3314 415 
Q 2916 -91 2278 -91 
Q 1894 -91 1617 61 
Q 1341 213 1159 525 
z
M 3116 1747 
Q 3116 2381 2855 2742 
Q 2594 3103 2138 3103 
Q 1681 3103 1420 2742 
Q 1159 2381 1159 1747 
Q 1159 1113 1420 752 
Q 1681 391 2138 391 
Q 2594 391 2855 752 
Q 3116 1113 3116 1747 
z
" transform="scale(0.015625)"/>
       <path id="DejaVuSans-73" d="M 2834 3397 
L 2834 2853 
Q 2591 2978 2328 3040 
Q 2066 3103 1784 3103 
Q 1356 3103 1142 2972 
Q 928 2841 928 2578 
Q 928 2378 1081 2264 
Q 1234 2150 1697 2047 
L 1894 2003 
Q 2506 1872 2764 1633 
Q 3022 1394 3022 966 
Q 3022 478 2636 193 
Q 2250 -91 1575 -91 
Q 1294 -91 989 -36 
Q 684 19 347 128 
L 347 722 
Q 666 556 975 473 
Q 1284 391 1588 391 
Q 1994 391 2212 530 
Q 2431 669 2431 922 
Q 2431 1156 2273 1281 
Q 2116 1406 1581 1522 
L 1381 1569 
Q 847 1681 609 1914 
Q 372 2147 372 2553 
Q 372 3047 722 3315 
Q 1072 3584 1716 3584 
Q 2034 3584 2315 3537 
Q 2597 3491 2834 3397 
z
" transform="scale(0.015625)"/>
      </defs>
      <use xlink:href="#DejaVuSans-49"/>
      <use xlink:href="#DejaVuSans-6e" transform="translate(29.492188 0)"/>
      <use xlink:href="#DejaVuSans-69" transform="translate(92.871094 0)"/>
      <use xlink:href="#DejaVuSans-74" transform="translate(120.654297 0)"/>
      <use xlink:href="#DejaVuSans-69" transform="translate(159.863281 0)"/>
      <use xlink:href="#DejaVuSans-61" transform="translate(187.646484 0)"/>
      <use xlink:href="#DejaVuSans-6c" transform="translate(248.925781 0)"/>
      <use xlink:href="#DejaVuSans-20" transform="translate(276.708984 0)"/>
      <use xlink:href="#DejaVuSans-70" transform="translate(308.496094 0)"/>
      <use xlink:href="#DejaVuSans-6f" transform="translate(371.972656 0)"/>
      <use xlink:href="#DejaVuSans-73" transform="translate(433.154297 0)"/>
      <use xlink:href="#DejaVuSans-69" transform="translate(485.253906 0)"/>
      <use xlink:href="#DejaVuSans-74" transform="translate(513.037109 0)"/>
      <use xlink:href="#DejaVuSans-69" transform="translate(552.246094 0)"/>
      <use xlink:href="#DejaVuSans-6f" transform="translate(580.029297 0)"/>
      <use xlink:href="#DejaVuSans-6e" transform="translate(641.210938 0)"/>
     </g>
    </g>
    <g id="line2d_35">
     <defs>
      <path id="m7db0359a1a" d="M 0 -4.5 
L -1.010313 -1.390576 
L -4.279754 -1.390576 
L -1.634721 0.531153 
L -2.645034 3.640576 
L -0 1.718847 
L 2.645034 3.640576 
L 1.634721 0.531153 
L 4.279754 -1.390576 
L 1.010313 -1.390576 
z
" style="stroke: #404040; stroke-linejoin: bevel"/>
     </defs>
     <g>
      <use xlink:href="#m7db0359a1a" x="239.501313" y="42.162969" style="fill: #404040; stroke: #404040; stroke-linejoin: bevel"/>
     </g>
    </g>
    <g id="text_28">
     <!-- Final target -->
     <g transform="translate(250.301313 44.962969) scale(0.08 -0.08)">
      <defs>
       <path id="DejaVuSans-46" d="M 628 4666 
L 3309 4666 
L 3309 4134 
L 1259 4134 
L 1259 2759 
L 3109 2759 
L 3109 2228 
L 1259 2228 
L 1259 0 
L 628 0 
L 628 4666 
z
" transform="scale(0.015625)"/>
       <path id="DejaVuSans-67" d="M 2906 1791 
Q 2906 2416 2648 2759 
Q 2391 3103 1925 3103 
Q 1463 3103 1205 2759 
Q 947 2416 947 1791 
Q 947 1169 1205 825 
Q 1463 481 1925 481 
Q 2391 481 2648 825 
Q 2906 1169 2906 1791 
z
M 3481 434 
Q 3481 -459 3084 -895 
Q 2688 -1331 1869 -1331 
Q 1566 -1331 1297 -1286 
Q 1028 -1241 775 -1147 
L 775 -588 
Q 1028 -725 1275 -790 
Q 1522 -856 1778 -856 
Q 2344 -856 2625 -561 
Q 2906 -266 2906 331 
L 2906 616 
Q 2728 306 2450 153 
Q 2172 0 1784 0 
Q 1141 0 747 490 
Q 353 981 353 1791 
Q 353 2603 747 3093 
Q 1141 3584 1784 3584 
Q 2172 3584 2450 3431 
Q 2728 3278 2906 2969 
L 2906 3500 
L 3481 3500 
L 3481 434 
z
" transform="scale(0.015625)"/>
      </defs>
      <use xlink:href="#DejaVuSans-46"/>
      <use xlink:href="#DejaVuSans-69" transform="translate(50.269531 0)"/>
      <use xlink:href="#DejaVuSans-6e" transform="translate(78.052734 0)"/>
      <use xlink:href="#DejaVuSans-61" transform="translate(141.431641 0)"/>
      <use xlink:href="#DejaVuSans-6c" transform="translate(202.710938 0)"/>
      <use xlink:href="#DejaVuSans-20" transform="translate(230.494141 0)"/>
      <use xlink:href="#DejaVuSans-74" transform="translate(262.28125 0)"/>
      <use xlink:href="#DejaVuSans-61" transform="translate(301.490234 0)"/>
      <use xlink:href="#DejaVuSans-72" transform="translate(362.769531 0)"/>
      <use xlink:href="#DejaVuSans-67" transform="translate(402.132812 0)"/>
      <use xlink:href="#DejaVuSans-65" transform="translate(465.609375 0)"/>
      <use xlink:href="#DejaVuSans-74" transform="translate(527.132812 0)"/>
     </g>
    </g>
    <g id="line2d_36">
     <defs>
      <path id="mee28e8759a" d="M -3 3 
L 3 3 
L 3 -3 
L -3 -3 
z
" style="stroke: #404040; stroke-opacity: 0.7; stroke-linejoin: miter"/>
     </defs>
     <g>
      <use xlink:href="#mee28e8759a" x="239.501313" y="52.705469" style="fill: #404040; fill-opacity: 0.7; stroke: #404040; stroke-opacity: 0.7; stroke-linejoin: miter"/>
     </g>
    </g>
    <g id="text_29">
     <!-- Snapshots 1-5 -->
     <g transform="translate(250.301313 55.505469) scale(0.08 -0.08)">
      <defs>
       <path id="DejaVuSans-53" d="M 3425 4513 
L 3425 3897 
Q 3066 4069 2747 4153 
Q 2428 4238 2131 4238 
Q 1616 4238 1336 4038 
Q 1056 3838 1056 3469 
Q 1056 3159 1242 3001 
Q 1428 2844 1947 2747 
L 2328 2669 
Q 3034 2534 3370 2195 
Q 3706 1856 3706 1288 
Q 3706 609 3251 259 
Q 2797 -91 1919 -91 
Q 1588 -91 1214 -16 
Q 841 59 441 206 
L 441 856 
Q 825 641 1194 531 
Q 1563 422 1919 422 
Q 2459 422 2753 634 
Q 3047 847 3047 1241 
Q 3047 1584 2836 1778 
Q 2625 1972 2144 2069 
L 1759 2144 
Q 1053 2284 737 2584 
Q 422 2884 422 3419 
Q 422 4038 858 4394 
Q 1294 4750 2059 4750 
Q 2388 4750 2728 4690 
Q 3069 4631 3425 4513 
z
" transform="scale(0.015625)"/>
       <path id="DejaVuSans-68" d="M 3513 2113 
L 3513 0 
L 2938 0 
L 2938 2094 
Q 2938 2591 2744 2837 
Q 2550 3084 2163 3084 
Q 1697 3084 1428 2787 
Q 1159 2491 1159 1978 
L 1159 0 
L 581 0 
L 581 4863 
L 1159 4863 
L 1159 2956 
Q 1366 3272 1645 3428 
Q 1925 3584 2291 3584 
Q 2894 3584 3203 3211 
Q 3513 2838 3513 2113 
z
" transform="scale(0.015625)"/>
       <path id="DejaVuSans-2d" d="M 313 2009 
L 1997 2009 
L 1997 1497 
L 313 1497 
L 313 2009 
z
" transform="scale(0.015625)"/>
       <path id="DejaVuSans-35" d="M 691 4666 
L 3169 4666 
L 3169 4134 
L 1269 4134 
L 1269 2991 
Q 1406 3038 1543 3061 
Q 1681 3084 1819 3084 
Q 2600 3084 3056 2656 
Q 3513 2228 3513 1497 
Q 3513 744 3044 326 
Q 2575 -91 1722 -91 
Q 1428 -91 1123 -41 
Q 819 9 494 109 
L 494 744 
Q 775 591 1075 516 
Q 1375 441 1709 441 
Q 2250 441 2565 725 
Q 2881 1009 2881 1497 
Q 2881 1984 2565 2268 
Q 2250 2553 1709 2553 
Q 1456 2553 1204 2497 
Q 953 2441 691 2322 
L 691 4666 
z
" transform="scale(0.015625)"/>
      </defs>
      <use xlink:href="#DejaVuSans-53"/>
      <use xlink:href="#DejaVuSans-6e" transform="translate(63.476562 0)"/>
      <use xlink:href="#DejaVuSans-61" transform="translate(126.855469 0)"/>
      <use xlink:href="#DejaVuSans-70" transform="translate(188.134766 0)"/>
      <use xlink:href="#DejaVuSans-73" transform="translate(251.611328 0)"/>
      <use xlink:href="#DejaVuSans-68" transform="translate(303.710938 0)"/>
      <use xlink:href="#DejaVuSans-6f" transform="translate(367.089844 0)"/>
      <use xlink:href="#DejaVuSans-74" transform="translate(428.271484 0)"/>
      <use xlink:href="#DejaVuSans-73" transform="translate(467.480469 0)"/>
      <use xlink:href="#DejaVuSans-20" transform="translate(519.580078 0)"/>
      <use xlink:href="#DejaVuSans-31" transform="translate(551.367188 0)"/>
      <use xlink:href="#DejaVuSans-2d" transform="translate(614.990234 0)"/>
      <use xlink:href="#DejaVuSans-35" transform="translate(651.074219 0)"/>
     </g>
    </g>
   </g>
  </g>
 </g>
 <defs>
  <clipPath id="pe7135ed20d">
   <rect x="42.620313" y="10.999219" width="271.656" height="388.08"/>
  </clipPath>
 </defs>
</svg>
